# xmcd CD database file
#
# Track frame offsets:
#	150
#	15450
#	57330
#	77290
#	94617
#	115690
#	137835
#	153467
#	171177
#	191145
#	210062
#	231657
#	254130
#	268590
#	285792
#	303612
#
# Disc length: 4405 seconds
#
# Revision: 0
# Processed by: cddbd v1.5PL3 Copyright (c) Steve Scherf et al.
# Submitted via: CDex 1.51
#
DISCID=d5113310
DTITLE=kusukusu - JAMBO
DYEAR=1993
DGENRE=JPop
TTITLE0=あなほり
TTITLE1=光の丘の木の下で
TTITLE2=花咲華人
TTITLE3=鉄の森
TTITLE4=世界が一番幸せな日
TTITLE5=ＹＯＣＨＡＢＡＲＥ
TTITLE6=地球オーケストラ
TTITLE7=雲の海
TTITLE8=てまねき
TTITLE9=お帰り
TTITLE10=猿のいびき
TTITLE11=オレンヂバナナ（カホンバージョン）
TTITLE12=くじらと夏
TTITLE13=ＧＯ
TTITLE14=まくらの中
TTITLE15=アクセル
EXTD=YEAR: 1993
EXTT0=
EXTT1=
EXTT2=
EXTT3=
EXTT4=
EXTT5=
EXTT6=
EXTT7=
EXTT8=
EXTT9=
EXTT10=
EXTT11=
EXTT12=
EXTT13=
EXTT14=
EXTT15=
PLAYORDER=
